<?xml version="1.0" encoding="utf-8" standalone="no"?>
<!DOCTYPE svg PUBLIC "-//W3C//DTD SVG 1.1//EN"
  "http://www.w3.org/Graphics/SVG/1.1/DTD/svg11.dtd">
<svg xmlns:xlink="http://www.w3.org/1999/xlink" width="460.8pt" height="345.6pt" viewBox="0 0 460.8 345.6" xmlns="http://www.w3.org/2000/svg" version="1.1">
 <metadata>
  <rdf:RDF xmlns:dc="http://purl.org/dc/elements/1.1/" xmlns:cc="http://creativecommons.org/ns#" xmlns:rdf="http://www.w3.org/1999/02/22-rdf-syntax-ns#">
   <cc:Work>
    <dc:type rdf:resource="http://purl.org/dc/dcmitype/StillImage"/>
    <dc:date>2024-04-15T06:58:22.949647</dc:date>
    <dc:format>image/svg+xml</dc:format>
    <dc:creator>
     <cc:Agent>
      <dc:title>Matplotlib v3.8.3, https://matplotlib.org/</dc:title>
     </cc:Agent>
    </dc:creator>
   </cc:Work>
  </rdf:RDF>
 </metadata>
 <defs>
  <style type="text/css">*{stroke-linejoin: round; stroke-linecap: butt}</style>
 </defs>
 <g id="figure_1">
  <g id="patch_1">
   <path d="M 0 345.6 
L 460.8 345.6 
L 460.8 0 
L 0 0 
z
" style="fill: #ffffff"/>
  </g>
  <g id="axes_1">
   <g id="patch_2">
    <path d="M 57.6 307.584 
L 414.72 307.584 
L 414.72 41.472 
L 57.6 41.472 
z
" style="fill: #ffffff"/>
   </g>
   <g id="PathCollection_1">
    <path d="M -836.693371 615.390462 
L -830.693371 609.390462 
M -836.693371 609.390462 
L -830.693371 615.390462 
" clip-path="url(#pc0b06348a1)" style="fill: #0000ff; fill-opacity: 0.5; stroke: #0000ff; stroke-opacity: 0.5; stroke-width: 1.5"/>
    <path d="M -858.23806 221.811378 
L -852.23806 215.811378 
M -858.23806 215.811378 
L -852.23806 221.811378 
" clip-path="url(#pc0b06348a1)" style="fill: #0000ff; fill-opacity: 0.5; stroke: #0000ff; stroke-opacity: 0.5; stroke-width: 1.5"/>
    <path d="M -638.077642 568.375942 
L -632.077642 562.375942 
M -638.077642 562.375942 
L -632.077642 568.375942 
" clip-path="url(#pc0b06348a1)" style="fill: #0000ff; fill-opacity: 0.5; stroke: #0000ff; stroke-opacity: 0.5; stroke-width: 1.5"/>
    <path d="M -616.688296 568.821504 
L -610.688296 562.821504 
M -616.688296 562.821504 
L -610.688296 568.821504 
" clip-path="url(#pc0b06348a1)" style="fill: #0000ff; fill-opacity: 0.5; stroke: #0000ff; stroke-opacity: 0.5; stroke-width: 1.5"/>
    <path d="M -568.84664 558.876255 
L -562.84664 552.876255 
M -568.84664 552.876255 
L -562.84664 558.876255 
" clip-path="url(#pc0b06348a1)" style="fill: #0000ff; fill-opacity: 0.5; stroke: #0000ff; stroke-opacity: 0.5; stroke-width: 1.5"/>
    <path d="M -501.578038 531.925644 
L -495.578038 525.925644 
M -501.578038 525.925644 
L -495.578038 531.925644 
" clip-path="url(#pc0b06348a1)" style="fill: #0000ff; fill-opacity: 0.5; stroke: #0000ff; stroke-opacity: 0.5; stroke-width: 1.5"/>
    <path d="M -679.244045 597.344051 
L -673.244045 591.344051 
M -679.244045 591.344051 
L -673.244045 597.344051 
" clip-path="url(#pc0b06348a1)" style="fill: #0000ff; fill-opacity: 0.5; stroke: #0000ff; stroke-opacity: 0.5; stroke-width: 1.5"/>
    <path d="M -481.24524 547.150534 
L -475.24524 541.150534 
M -481.24524 541.150534 
L -475.24524 547.150534 
" clip-path="url(#pc0b06348a1)" style="fill: #0000ff; fill-opacity: 0.5; stroke: #0000ff; stroke-opacity: 0.5; stroke-width: 1.5"/>
    <path d="M -513.503212 269.685272 
L -507.503212 263.685272 
M -513.503212 263.685272 
L -507.503212 269.685272 
" clip-path="url(#pc0b06348a1)" style="fill: #0000ff; fill-opacity: 0.5; stroke: #0000ff; stroke-opacity: 0.5; stroke-width: 1.5"/>
    <path d="M -529.491941 266.375027 
L -523.491941 260.375027 
M -529.491941 260.375027 
L -523.491941 266.375027 
" clip-path="url(#pc0b06348a1)" style="fill: #0000ff; fill-opacity: 0.5; stroke: #0000ff; stroke-opacity: 0.5; stroke-width: 1.5"/>
    <path d="M -623.732253 243.858025 
L -617.732253 237.858025 
M -623.732253 237.858025 
L -617.732253 243.858025 
" clip-path="url(#pc0b06348a1)" style="fill: #0000ff; fill-opacity: 0.5; stroke: #0000ff; stroke-opacity: 0.5; stroke-width: 1.5"/>
    <path d="M -850.268657 605.344687 
L -844.268657 599.344687 
M -850.268657 599.344687 
L -844.268657 605.344687 
" clip-path="url(#pc0b06348a1)" style="fill: #0000ff; fill-opacity: 0.5; stroke: #0000ff; stroke-opacity: 0.5; stroke-width: 1.5"/>
    <path d="M -848.269275 266.17546 
L -842.269275 260.17546 
M -848.269275 260.17546 
L -842.269275 266.17546 
" clip-path="url(#pc0b06348a1)" style="fill: #0000ff; fill-opacity: 0.5; stroke: #0000ff; stroke-opacity: 0.5; stroke-width: 1.5"/>
    <path d="M -642.952649 235.857825 
L -636.952649 229.857825 
M -642.952649 229.857825 
L -636.952649 235.857825 
" clip-path="url(#pc0b06348a1)" style="fill: #0000ff; fill-opacity: 0.5; stroke: #0000ff; stroke-opacity: 0.5; stroke-width: 1.5"/>
    <path d="M -803.818555 248.51215 
L -797.818555 242.51215 
M -803.818555 242.51215 
L -797.818555 248.51215 
" clip-path="url(#pc0b06348a1)" style="fill: #0000ff; fill-opacity: 0.5; stroke: #0000ff; stroke-opacity: 0.5; stroke-width: 1.5"/>
    <path d="M -664.672955 240.087461 
L -658.672955 234.087461 
M -664.672955 234.087461 
L -658.672955 240.087461 
" clip-path="url(#pc0b06348a1)" style="fill: #0000ff; fill-opacity: 0.5; stroke: #0000ff; stroke-opacity: 0.5; stroke-width: 1.5"/>
    <path d="M -834.422009 241.643251 
L -828.422009 235.643251 
M -834.422009 235.643251 
L -828.422009 241.643251 
" clip-path="url(#pc0b06348a1)" style="fill: #0000ff; fill-opacity: 0.5; stroke: #0000ff; stroke-opacity: 0.5; stroke-width: 1.5"/>
    <path d="M -837.215695 222.81694 
L -831.215695 216.81694 
M -837.215695 216.81694 
L -831.215695 222.81694 
" clip-path="url(#pc0b06348a1)" style="fill: #0000ff; fill-opacity: 0.5; stroke: #0000ff; stroke-opacity: 0.5; stroke-width: 1.5"/>
    <path d="M -438.793261 482.693521 
L -432.793261 476.693521 
M -438.793261 476.693521 
L -432.793261 482.693521 
" clip-path="url(#pc0b06348a1)" style="fill: #0000ff; fill-opacity: 0.5; stroke: #0000ff; stroke-opacity: 0.5; stroke-width: 1.5"/>
    <path d="M -453.837713 499.435605 
L -447.837713 493.435605 
M -453.837713 493.435605 
L -447.837713 499.435605 
" clip-path="url(#pc0b06348a1)" style="fill: #0000ff; fill-opacity: 0.5; stroke: #0000ff; stroke-opacity: 0.5; stroke-width: 1.5"/>
    <path d="M -351.418284 459.236572 
L -345.418284 453.236572 
M -351.418284 453.236572 
L -345.418284 459.236572 
" clip-path="url(#pc0b06348a1)" style="fill: #0000ff; fill-opacity: 0.5; stroke: #0000ff; stroke-opacity: 0.5; stroke-width: 1.5"/>
    <path d="M -480.269589 525.677397 
L -474.269589 519.677397 
M -480.269589 519.677397 
L -474.269589 525.677397 
" clip-path="url(#pc0b06348a1)" style="fill: #0000ff; fill-opacity: 0.5; stroke: #0000ff; stroke-opacity: 0.5; stroke-width: 1.5"/>
    <path d="M -887.703989 586.892541 
L -881.703989 580.892541 
M -887.703989 580.892541 
L -881.703989 586.892541 
" clip-path="url(#pc0b06348a1)" style="fill: #0000ff; fill-opacity: 0.5; stroke: #0000ff; stroke-opacity: 0.5; stroke-width: 1.5"/>
    <path d="M -666.862819 605.410065 
L -660.862819 599.410065 
M -666.862819 599.410065 
L -660.862819 605.410065 
" clip-path="url(#pc0b06348a1)" style="fill: #0000ff; fill-opacity: 0.5; stroke: #0000ff; stroke-opacity: 0.5; stroke-width: 1.5"/>
    <path d="M -327.41708 448.744592 
L -321.41708 442.744592 
M -327.41708 442.744592 
L -321.41708 448.744592 
" clip-path="url(#pc0b06348a1)" style="fill: #0000ff; fill-opacity: 0.5; stroke: #0000ff; stroke-opacity: 0.5; stroke-width: 1.5"/>
    <path d="M -310.486758 452.815959 
L -304.486758 446.815959 
M -310.486758 446.815959 
L -304.486758 452.815959 
" clip-path="url(#pc0b06348a1)" style="fill: #0000ff; fill-opacity: 0.5; stroke: #0000ff; stroke-opacity: 0.5; stroke-width: 1.5"/>
    <path d="M -923.582126 576.155363 
L -917.582126 570.155363 
M -923.582126 570.155363 
L -917.582126 576.155363 
" clip-path="url(#pc0b06348a1)" style="fill: #0000ff; fill-opacity: 0.5; stroke: #0000ff; stroke-opacity: 0.5; stroke-width: 1.5"/>
    <path d="M -940.961768 571.284933 
L -934.961768 565.284933 
M -940.961768 565.284933 
L -934.961768 571.284933 
" clip-path="url(#pc0b06348a1)" style="fill: #0000ff; fill-opacity: 0.5; stroke: #0000ff; stroke-opacity: 0.5; stroke-width: 1.5"/>
    <path d="M -1041.581672 506.139136 
L -1035.581672 500.139136 
M -1041.581672 500.139136 
L -1035.581672 506.139136 
" clip-path="url(#pc0b06348a1)" style="fill: #0000ff; fill-opacity: 0.5; stroke: #0000ff; stroke-opacity: 0.5; stroke-width: 1.5"/>
    <path d="M -1006.799629 512.946772 
L -1000.799629 506.946772 
M -1006.799629 506.946772 
L -1000.799629 512.946772 
" clip-path="url(#pc0b06348a1)" style="fill: #0000ff; fill-opacity: 0.5; stroke: #0000ff; stroke-opacity: 0.5; stroke-width: 1.5"/>
    <path d="M -1002.259308 523.24476 
L -996.259308 517.24476 
M -1002.259308 517.24476 
L -996.259308 523.24476 
" clip-path="url(#pc0b06348a1)" style="fill: #0000ff; fill-opacity: 0.5; stroke: #0000ff; stroke-opacity: 0.5; stroke-width: 1.5"/>
    <path d="M -1010.968442 492.432754 
L -1004.968442 486.432754 
M -1010.968442 486.432754 
L -1004.968442 492.432754 
" clip-path="url(#pc0b06348a1)" style="fill: #0000ff; fill-opacity: 0.5; stroke: #0000ff; stroke-opacity: 0.5; stroke-width: 1.5"/>
    <path d="M -50.058443 706.033727 
L -44.058443 700.033727 
M -50.058443 700.033727 
L -44.058443 706.033727 
" clip-path="url(#pc0b06348a1)" style="fill: #fe0100; fill-opacity: 0.5; stroke: #fe0100; stroke-opacity: 0.5; stroke-width: 1.5"/>
    <path d="M -1017.561676 685.306908 
L -1011.561676 679.306908 
M -1017.561676 679.306908 
L -1011.561676 685.306908 
" clip-path="url(#pc0b06348a1)" style="fill: #fe0100; fill-opacity: 0.5; stroke: #fe0100; stroke-opacity: 0.5; stroke-width: 1.5"/>
    <path d="M -40.467677 1004.312976 
L -34.467677 998.312976 
M -40.467677 998.312976 
L -34.467677 1004.312976 
" clip-path="url(#pc0b06348a1)" style="fill: #fe0100; fill-opacity: 0.5; stroke: #fe0100; stroke-opacity: 0.5; stroke-width: 1.5"/>
    <path d="M 199.016838 827.186269 
L 205.016838 821.186269 
M 199.016838 821.186269 
L 205.016838 827.186269 
" clip-path="url(#pc0b06348a1)" style="fill: #fe0100; fill-opacity: 0.5; stroke: #fe0100; stroke-opacity: 0.5; stroke-width: 1.5"/>
    <path d="M 133.161367 807.859334 
L 139.161367 801.859334 
M 133.161367 801.859334 
L 139.161367 807.859334 
" clip-path="url(#pc0b06348a1)" style="fill: #fe0100; fill-opacity: 0.5; stroke: #fe0100; stroke-opacity: 0.5; stroke-width: 1.5"/>
    <path d="M 328.477774 779.746715 
L 334.477774 773.746715 
M 328.477774 773.746715 
L 334.477774 779.746715 
" clip-path="url(#pc0b06348a1)" style="fill: #fe0100; fill-opacity: 0.5; stroke: #fe0100; stroke-opacity: 0.5; stroke-width: 1.5"/>
    <path d="M 361.759759 751.6158 
L 367.759759 745.6158 
M 361.759759 745.6158 
L 367.759759 751.6158 
" clip-path="url(#pc0b06348a1)" style="fill: #fe0100; fill-opacity: 0.5; stroke: #fe0100; stroke-opacity: 0.5; stroke-width: 1.5"/>
    <path d="M 387.856188 725.954713 
L 393.856188 719.954713 
M 387.856188 719.954713 
L 393.856188 725.954713 
" clip-path="url(#pc0b06348a1)" style="fill: #fe0100; fill-opacity: 0.5; stroke: #fe0100; stroke-opacity: 0.5; stroke-width: 1.5"/>
    <path d="M -61.24948 712.905834 
L -55.24948 706.905834 
M -61.24948 706.905834 
L -55.24948 712.905834 
" clip-path="url(#pc0b06348a1)" style="fill: #fe0100; fill-opacity: 0.5; stroke: #fe0100; stroke-opacity: 0.5; stroke-width: 1.5"/>
    <path d="M 330.314882 807.240955 
L 336.314882 801.240955 
M 330.314882 801.240955 
L 336.314882 807.240955 
" clip-path="url(#pc0b06348a1)" style="fill: #fe0100; fill-opacity: 0.5; stroke: #fe0100; stroke-opacity: 0.5; stroke-width: 1.5"/>
    <path d="M 102.363264 901.541988 
L 108.363264 895.541988 
M 102.363264 895.541988 
L 108.363264 901.541988 
" clip-path="url(#pc0b06348a1)" style="fill: #fe0100; fill-opacity: 0.5; stroke: #fe0100; stroke-opacity: 0.5; stroke-width: 1.5"/>
    <path d="M -1042.789876 706.747426 
L -1036.789876 700.747426 
M -1042.789876 700.747426 
L -1036.789876 706.747426 
" clip-path="url(#pc0b06348a1)" style="fill: #fe0100; fill-opacity: 0.5; stroke: #fe0100; stroke-opacity: 0.5; stroke-width: 1.5"/>
    <path d="M 70.113164 927.616651 
L 76.113164 921.616651 
M 70.113164 921.616651 
L 76.113164 927.616651 
" clip-path="url(#pc0b06348a1)" style="fill: #fe0100; fill-opacity: 0.5; stroke: #fe0100; stroke-opacity: 0.5; stroke-width: 1.5"/>
    <path d="M 42.96711 942.335142 
L 48.96711 936.335142 
M 42.96711 936.335142 
L 48.96711 942.335142 
" clip-path="url(#pc0b06348a1)" style="fill: #fe0100; fill-opacity: 0.5; stroke: #fe0100; stroke-opacity: 0.5; stroke-width: 1.5"/>
    <path d="M -109.441573 796.721301 
L -103.441573 790.721301 
M -109.441573 790.721301 
L -103.441573 796.721301 
" clip-path="url(#pc0b06348a1)" style="fill: #fe0100; fill-opacity: 0.5; stroke: #fe0100; stroke-opacity: 0.5; stroke-width: 1.5"/>
    <path d="M -146.842992 852.859584 
L -140.842992 846.859584 
M -146.842992 846.859584 
L -140.842992 852.859584 
" clip-path="url(#pc0b06348a1)" style="fill: #fe0100; fill-opacity: 0.5; stroke: #fe0100; stroke-opacity: 0.5; stroke-width: 1.5"/>
    <path d="M -173.696562 901.712208 
L -167.696562 895.712208 
M -173.696562 895.712208 
L -167.696562 901.712208 
" clip-path="url(#pc0b06348a1)" style="fill: #fe0100; fill-opacity: 0.5; stroke: #fe0100; stroke-opacity: 0.5; stroke-width: 1.5"/>
    <path d="M -232.203522 892.835345 
L -226.203522 886.835345 
M -232.203522 886.835345 
L -226.203522 892.835345 
" clip-path="url(#pc0b06348a1)" style="fill: #fe0100; fill-opacity: 0.5; stroke: #fe0100; stroke-opacity: 0.5; stroke-width: 1.5"/>
    <path d="M -57.63002 968.481557 
L -51.63002 962.481557 
M -57.63002 962.481557 
L -51.63002 968.481557 
" clip-path="url(#pc0b06348a1)" style="fill: #fe0100; fill-opacity: 0.5; stroke: #fe0100; stroke-opacity: 0.5; stroke-width: 1.5"/>
    <path d="M -45.812793 994.290023 
L -39.812793 988.290023 
M -45.812793 988.290023 
L -39.812793 994.290023 
" clip-path="url(#pc0b06348a1)" style="fill: #fe0100; fill-opacity: 0.5; stroke: #fe0100; stroke-opacity: 0.5; stroke-width: 1.5"/>
    <path d="M 167.929346 825.803122 
L 173.929346 819.803122 
M 167.929346 819.803122 
L 173.929346 825.803122 
" clip-path="url(#pc0b06348a1)" style="fill: #fe0100; fill-opacity: 0.5; stroke: #fe0100; stroke-opacity: 0.5; stroke-width: 1.5"/>
    <path d="M 116.001066 801.298206 
L 122.001066 795.298206 
M 116.001066 795.298206 
L 122.001066 801.298206 
" clip-path="url(#pc0b06348a1)" style="fill: #fe0100; fill-opacity: 0.5; stroke: #fe0100; stroke-opacity: 0.5; stroke-width: 1.5"/>
    <path d="M -92.381755 768.577396 
L -86.381755 762.577396 
M -92.381755 762.577396 
L -86.381755 768.577396 
" clip-path="url(#pc0b06348a1)" style="fill: #fe0100; fill-opacity: 0.5; stroke: #fe0100; stroke-opacity: 0.5; stroke-width: 1.5"/>
    <path d="M 345.710208 784.099483 
L 351.710208 778.099483 
M 345.710208 778.099483 
L 351.710208 784.099483 
" clip-path="url(#pc0b06348a1)" style="fill: #fe0100; fill-opacity: 0.5; stroke: #fe0100; stroke-opacity: 0.5; stroke-width: 1.5"/>
    <path d="M -276.778371 889.86344 
L -270.778371 883.86344 
M -276.778371 883.86344 
L -270.778371 889.86344 
" clip-path="url(#pc0b06348a1)" style="fill: #fe0100; fill-opacity: 0.5; stroke: #fe0100; stroke-opacity: 0.5; stroke-width: 1.5"/>
    <path d="M 373.618341 740.818956 
L 379.618341 734.818956 
M 373.618341 734.818956 
L 379.618341 740.818956 
" clip-path="url(#pc0b06348a1)" style="fill: #fe0100; fill-opacity: 0.5; stroke: #fe0100; stroke-opacity: 0.5; stroke-width: 1.5"/>
    <path d="M -1010.597094 693.402104 
L -1004.597094 687.402104 
M -1010.597094 687.402104 
L -1004.597094 693.402104 
" clip-path="url(#pc0b06348a1)" style="fill: #fe0100; fill-opacity: 0.5; stroke: #fe0100; stroke-opacity: 0.5; stroke-width: 1.5"/>
    <path d="M -103.194635 785.618496 
L -97.194635 779.618496 
M -103.194635 779.618496 
L -97.194635 785.618496 
" clip-path="url(#pc0b06348a1)" style="fill: #fe0100; fill-opacity: 0.5; stroke: #fe0100; stroke-opacity: 0.5; stroke-width: 1.5"/>
    <path d="M 13.466026 945.182508 
L 19.466026 939.182508 
M 13.466026 939.182508 
L 19.466026 945.182508 
" clip-path="url(#pc0b06348a1)" style="fill: #fe0100; fill-opacity: 0.5; stroke: #fe0100; stroke-opacity: 0.5; stroke-width: 1.5"/>
    <path d="M -6.17121 949.379729 
L -0.17121 943.379729 
M -6.17121 943.379729 
L -0.17121 949.379729 
" clip-path="url(#pc0b06348a1)" style="fill: #fe0100; fill-opacity: 0.5; stroke: #fe0100; stroke-opacity: 0.5; stroke-width: 1.5"/>
    <path d="M -177.494467 888.900329 
L -171.494467 882.900329 
M -177.494467 882.900329 
L -171.494467 888.900329 
" clip-path="url(#pc0b06348a1)" style="fill: #fe0100; fill-opacity: 0.5; stroke: #fe0100; stroke-opacity: 0.5; stroke-width: 1.5"/>
    <path d="M -160.570736 866.189782 
L -154.570736 860.189782 
M -160.570736 860.189782 
L -154.570736 866.189782 
" clip-path="url(#pc0b06348a1)" style="fill: #fe0100; fill-opacity: 0.5; stroke: #fe0100; stroke-opacity: 0.5; stroke-width: 1.5"/>
    <path d="M 943.604539 398.721838 
L 949.604539 392.721838 
M 943.604539 392.721838 
L 949.604539 398.721838 
" clip-path="url(#pc0b06348a1)" style="fill: #00ff00; fill-opacity: 0.5; stroke: #00ff00; stroke-opacity: 0.5; stroke-width: 1.5"/>
    <path d="M 276.667023 279.399761 
L 282.667023 273.399761 
M 276.667023 273.399761 
L 282.667023 279.399761 
" clip-path="url(#pc0b06348a1)" style="fill: #00ff00; fill-opacity: 0.5; stroke: #00ff00; stroke-opacity: 0.5; stroke-width: 1.5"/>
    <path d="M 242.089807 267.407467 
L 248.089807 261.407467 
M 242.089807 261.407467 
L 248.089807 267.407467 
" clip-path="url(#pc0b06348a1)" style="fill: #00ff00; fill-opacity: 0.5; stroke: #00ff00; stroke-opacity: 0.5; stroke-width: 1.5"/>
    <path d="M 228.876834 197.624246 
L 234.876834 191.624246 
M 228.876834 191.624246 
L 234.876834 197.624246 
" clip-path="url(#pc0b06348a1)" style="fill: #00ff00; fill-opacity: 0.5; stroke: #00ff00; stroke-opacity: 0.5; stroke-width: 1.5"/>
    <path d="M 212.776296 157.209577 
L 218.776296 151.209577 
M 212.776296 151.209577 
L 218.776296 157.209577 
" clip-path="url(#pc0b06348a1)" style="fill: #00ff00; fill-opacity: 0.5; stroke: #00ff00; stroke-opacity: 0.5; stroke-width: 1.5"/>
    <path d="M 200.006132 105.000634 
L 206.006132 99.000634 
M 200.006132 99.000634 
L 206.006132 105.000634 
" clip-path="url(#pc0b06348a1)" style="fill: #00ff00; fill-opacity: 0.5; stroke: #00ff00; stroke-opacity: 0.5; stroke-width: 1.5"/>
    <path d="M -417.421305 634.145615 
L -411.421305 628.145615 
M -417.421305 628.145615 
L -411.421305 634.145615 
" clip-path="url(#pc0b06348a1)" style="fill: #00ff00; fill-opacity: 0.5; stroke: #00ff00; stroke-opacity: 0.5; stroke-width: 1.5"/>
    <path d="M 129.366907 70.24789 
L 135.366907 64.24789 
M 129.366907 64.24789 
L 135.366907 70.24789 
" clip-path="url(#pc0b06348a1)" style="fill: #00ff00; fill-opacity: 0.5; stroke: #00ff00; stroke-opacity: 0.5; stroke-width: 1.5"/>
    <path d="M 919.571721 395.93981 
L 925.571721 389.93981 
M 919.571721 389.93981 
L 925.571721 395.93981 
" clip-path="url(#pc0b06348a1)" style="fill: #00ff00; fill-opacity: 0.5; stroke: #00ff00; stroke-opacity: 0.5; stroke-width: 1.5"/>
    <path d="M 855.671938 411.460489 
L 861.671938 405.460489 
M 855.671938 405.460489 
L 861.671938 411.460489 
" clip-path="url(#pc0b06348a1)" style="fill: #00ff00; fill-opacity: 0.5; stroke: #00ff00; stroke-opacity: 0.5; stroke-width: 1.5"/>
    <path d="M 1048.480844 517.783057 
L 1054.480844 511.783057 
M 1048.480844 511.783057 
L 1054.480844 517.783057 
" clip-path="url(#pc0b06348a1)" style="fill: #00ff00; fill-opacity: 0.5; stroke: #00ff00; stroke-opacity: 0.5; stroke-width: 1.5"/>
    <path d="M 841.101609 393.472751 
L 847.101609 387.472751 
M 841.101609 387.472751 
L 847.101609 393.472751 
" clip-path="url(#pc0b06348a1)" style="fill: #00ff00; fill-opacity: 0.5; stroke: #00ff00; stroke-opacity: 0.5; stroke-width: 1.5"/>
    <path d="M 811.67126 440.64342 
L 817.67126 434.64342 
M 811.67126 434.64342 
L 817.67126 440.64342 
" clip-path="url(#pc0b06348a1)" style="fill: #00ff00; fill-opacity: 0.5; stroke: #00ff00; stroke-opacity: 0.5; stroke-width: 1.5"/>
    <path d="M 792.331903 445.405011 
L 798.331903 439.405011 
M 792.331903 439.405011 
L 798.331903 445.405011 
" clip-path="url(#pc0b06348a1)" style="fill: #00ff00; fill-opacity: 0.5; stroke: #00ff00; stroke-opacity: 0.5; stroke-width: 1.5"/>
    <path d="M 762.714197 509.034658 
L 768.714197 503.034658 
M 762.714197 503.034658 
L 768.714197 509.034658 
" clip-path="url(#pc0b06348a1)" style="fill: #00ff00; fill-opacity: 0.5; stroke: #00ff00; stroke-opacity: 0.5; stroke-width: 1.5"/>
    <path d="M 729.010779 497.133754 
L 735.010779 491.133754 
M 729.010779 491.133754 
L 735.010779 497.133754 
" clip-path="url(#pc0b06348a1)" style="fill: #00ff00; fill-opacity: 0.5; stroke: #00ff00; stroke-opacity: 0.5; stroke-width: 1.5"/>
    <path d="M 660.319209 475.523368 
L 666.319209 469.523368 
M 660.319209 469.523368 
L 666.319209 475.523368 
" clip-path="url(#pc0b06348a1)" style="fill: #00ff00; fill-opacity: 0.5; stroke: #00ff00; stroke-opacity: 0.5; stroke-width: 1.5"/>
    <path d="M 309.398216 266.992022 
L 315.398216 260.992022 
M 309.398216 260.992022 
L 315.398216 266.992022 
" clip-path="url(#pc0b06348a1)" style="fill: #00ff00; fill-opacity: 0.5; stroke: #00ff00; stroke-opacity: 0.5; stroke-width: 1.5"/>
    <path d="M 245.533613 252.72769 
L 251.533613 246.72769 
M 245.533613 246.72769 
L 251.533613 252.72769 
" clip-path="url(#pc0b06348a1)" style="fill: #00ff00; fill-opacity: 0.5; stroke: #00ff00; stroke-opacity: 0.5; stroke-width: 1.5"/>
    <path d="M 204.553545 274.534119 
L 210.553545 268.534119 
M 204.553545 268.534119 
L 210.553545 274.534119 
" clip-path="url(#pc0b06348a1)" style="fill: #00ff00; fill-opacity: 0.5; stroke: #00ff00; stroke-opacity: 0.5; stroke-width: 1.5"/>
    <path d="M 224.327297 187.452415 
L 230.327297 181.452415 
M 224.327297 181.452415 
L 230.327297 187.452415 
" clip-path="url(#pc0b06348a1)" style="fill: #00ff00; fill-opacity: 0.5; stroke: #00ff00; stroke-opacity: 0.5; stroke-width: 1.5"/>
    <path d="M 208.411451 122.6235 
L 214.411451 116.6235 
M 208.411451 116.6235 
L 214.411451 122.6235 
" clip-path="url(#pc0b06348a1)" style="fill: #00ff00; fill-opacity: 0.5; stroke: #00ff00; stroke-opacity: 0.5; stroke-width: 1.5"/>
    <path d="M 1063.560916 514.567444 
L 1069.560916 508.567444 
M 1063.560916 508.567444 
L 1069.560916 514.567444 
" clip-path="url(#pc0b06348a1)" style="fill: #00ff00; fill-opacity: 0.5; stroke: #00ff00; stroke-opacity: 0.5; stroke-width: 1.5"/>
    <path d="M 195.416427 131.675105 
L 201.416427 125.675105 
M 195.416427 125.675105 
L 201.416427 131.675105 
" clip-path="url(#pc0b06348a1)" style="fill: #00ff00; fill-opacity: 0.5; stroke: #00ff00; stroke-opacity: 0.5; stroke-width: 1.5"/>
    <path d="M -406.071504 640.640575 
L -400.071504 634.640575 
M -406.071504 634.640575 
L -400.071504 640.640575 
" clip-path="url(#pc0b06348a1)" style="fill: #00ff00; fill-opacity: 0.5; stroke: #00ff00; stroke-opacity: 0.5; stroke-width: 1.5"/>
    <path d="M 115.024203 75.220399 
L 121.024203 69.220399 
M 115.024203 69.220399 
L 121.024203 75.220399 
" clip-path="url(#pc0b06348a1)" style="fill: #00ff00; fill-opacity: 0.5; stroke: #00ff00; stroke-opacity: 0.5; stroke-width: 1.5"/>
    <path d="M 889.453969 453.937858 
L 895.453969 447.937858 
M 889.453969 447.937858 
L 895.453969 453.937858 
" clip-path="url(#pc0b06348a1)" style="fill: #00ff00; fill-opacity: 0.5; stroke: #00ff00; stroke-opacity: 0.5; stroke-width: 1.5"/>
    <path d="M 899.948444 471.577849 
L 905.948444 465.577849 
M 899.948444 465.577849 
L 905.948444 471.577849 
" clip-path="url(#pc0b06348a1)" style="fill: #00ff00; fill-opacity: 0.5; stroke: #00ff00; stroke-opacity: 0.5; stroke-width: 1.5"/>
    <path d="M 905.687913 483.045635 
L 911.687913 477.045635 
M 905.687913 477.045635 
L 911.687913 483.045635 
" clip-path="url(#pc0b06348a1)" style="fill: #00ff00; fill-opacity: 0.5; stroke: #00ff00; stroke-opacity: 0.5; stroke-width: 1.5"/>
    <path d="M 733.321031 487.167828 
L 739.321031 481.167828 
M 733.321031 481.167828 
L 739.321031 487.167828 
" clip-path="url(#pc0b06348a1)" style="fill: #00ff00; fill-opacity: 0.5; stroke: #00ff00; stroke-opacity: 0.5; stroke-width: 1.5"/>
    <path d="M 692.145211 485.84398 
L 698.145211 479.84398 
M 692.145211 479.84398 
L 698.145211 485.84398 
" clip-path="url(#pc0b06348a1)" style="fill: #00ff00; fill-opacity: 0.5; stroke: #00ff00; stroke-opacity: 0.5; stroke-width: 1.5"/>
    <path d="M 290.735804 296.550589 
L 296.735804 290.550589 
M 290.735804 290.550589 
L 296.735804 296.550589 
" clip-path="url(#pc0b06348a1)" style="fill: #00ff00; fill-opacity: 0.5; stroke: #00ff00; stroke-opacity: 0.5; stroke-width: 1.5"/>
   </g>
   <g id="matplotlib.axis_1">
    <g id="xtick_1">
     <g id="line2d_1">
      <defs>
       <path id="mc40979dc7a" d="M 0 0 
L 0 3.5 
" style="stroke: #000000; stroke-width: 0.8"/>
      </defs>
      <g>
       <use xlink:href="#mc40979dc7a" x="78.607059" y="307.584" style="stroke: #000000; stroke-width: 0.8"/>
      </g>
     </g>
     <g id="text_1">
      <!-- 6 -->
      <g transform="translate(75.425809 322.182437) scale(0.1 -0.1)">
       <defs>
        <path id="DejaVuSans-36" d="M 2113 2584 
Q 1688 2584 1439 2293 
Q 1191 2003 1191 1497 
Q 1191 994 1439 701 
Q 1688 409 2113 409 
Q 2538 409 2786 701 
Q 3034 994 3034 1497 
Q 3034 2003 2786 2293 
Q 2538 2584 2113 2584 
z
M 3366 4563 
L 3366 3988 
Q 3128 4100 2886 4159 
Q 2644 4219 2406 4219 
Q 1781 4219 1451 3797 
Q 1122 3375 1075 2522 
Q 1259 2794 1537 2939 
Q 1816 3084 2150 3084 
Q 2853 3084 3261 2657 
Q 3669 2231 3669 1497 
Q 3669 778 3244 343 
Q 2819 -91 2113 -91 
Q 1303 -91 875 529 
Q 447 1150 447 2328 
Q 447 3434 972 4092 
Q 1497 4750 2381 4750 
Q 2619 4750 2861 4703 
Q 3103 4656 3366 4563 
z
" transform="scale(0.015625)"/>
       </defs>
       <use xlink:href="#DejaVuSans-36"/>
      </g>
     </g>
    </g>
    <g id="xtick_2">
     <g id="line2d_2">
      <g>
       <use xlink:href="#mc40979dc7a" x="120.621176" y="307.584" style="stroke: #000000; stroke-width: 0.8"/>
      </g>
     </g>
     <g id="text_2">
      <!-- 8 -->
      <g transform="translate(117.439926 322.182437) scale(0.1 -0.1)">
       <defs>
        <path id="DejaVuSans-38" d="M 2034 2216 
Q 1584 2216 1326 1975 
Q 1069 1734 1069 1313 
Q 1069 891 1326 650 
Q 1584 409 2034 409 
Q 2484 409 2743 651 
Q 3003 894 3003 1313 
Q 3003 1734 2745 1975 
Q 2488 2216 2034 2216 
z
M 1403 2484 
Q 997 2584 770 2862 
Q 544 3141 544 3541 
Q 544 4100 942 4425 
Q 1341 4750 2034 4750 
Q 2731 4750 3128 4425 
Q 3525 4100 3525 3541 
Q 3525 3141 3298 2862 
Q 3072 2584 2669 2484 
Q 3125 2378 3379 2068 
Q 3634 1759 3634 1313 
Q 3634 634 3220 271 
Q 2806 -91 2034 -91 
Q 1263 -91 848 271 
Q 434 634 434 1313 
Q 434 1759 690 2068 
Q 947 2378 1403 2484 
z
M 1172 3481 
Q 1172 3119 1398 2916 
Q 1625 2713 2034 2713 
Q 2441 2713 2670 2916 
Q 2900 3119 2900 3481 
Q 2900 3844 2670 4047 
Q 2441 4250 2034 4250 
Q 1625 4250 1398 4047 
Q 1172 3844 1172 3481 
z
" transform="scale(0.015625)"/>
       </defs>
       <use xlink:href="#DejaVuSans-38"/>
      </g>
     </g>
    </g>
    <g id="xtick_3">
     <g id="line2d_3">
      <g>
       <use xlink:href="#mc40979dc7a" x="162.635294" y="307.584" style="stroke: #000000; stroke-width: 0.8"/>
      </g>
     </g>
     <g id="text_3">
      <!-- 10 -->
      <g transform="translate(156.272794 322.182437) scale(0.1 -0.1)">
       <defs>
        <path id="DejaVuSans-31" d="M 794 531 
L 1825 531 
L 1825 4091 
L 703 3866 
L 703 4441 
L 1819 4666 
L 2450 4666 
L 2450 531 
L 3481 531 
L 3481 0 
L 794 0 
L 794 531 
z
" transform="scale(0.015625)"/>
        <path id="DejaVuSans-30" d="M 2034 4250 
Q 1547 4250 1301 3770 
Q 1056 3291 1056 2328 
Q 1056 1369 1301 889 
Q 1547 409 2034 409 
Q 2525 409 2770 889 
Q 3016 1369 3016 2328 
Q 3016 3291 2770 3770 
Q 2525 4250 2034 4250 
z
M 2034 4750 
Q 2819 4750 3233 4129 
Q 3647 3509 3647 2328 
Q 3647 1150 3233 529 
Q 2819 -91 2034 -91 
Q 1250 -91 836 529 
Q 422 1150 422 2328 
Q 422 3509 836 4129 
Q 1250 4750 2034 4750 
z
" transform="scale(0.015625)"/>
       </defs>
       <use xlink:href="#DejaVuSans-31"/>
       <use xlink:href="#DejaVuSans-30" x="63.623047"/>
      </g>
     </g>
    </g>
    <g id="xtick_4">
     <g id="line2d_4">
      <g>
       <use xlink:href="#mc40979dc7a" x="204.649412" y="307.584" style="stroke: #000000; stroke-width: 0.8"/>
      </g>
     </g>
     <g id="text_4">
      <!-- 12 -->
      <g transform="translate(198.286912 322.182437) scale(0.1 -0.1)">
       <defs>
        <path id="DejaVuSans-32" d="M 1228 531 
L 3431 531 
L 3431 0 
L 469 0 
L 469 531 
Q 828 903 1448 1529 
Q 2069 2156 2228 2338 
Q 2531 2678 2651 2914 
Q 2772 3150 2772 3378 
Q 2772 3750 2511 3984 
Q 2250 4219 1831 4219 
Q 1534 4219 1204 4116 
Q 875 4013 500 3803 
L 500 4441 
Q 881 4594 1212 4672 
Q 1544 4750 1819 4750 
Q 2544 4750 2975 4387 
Q 3406 4025 3406 3419 
Q 3406 3131 3298 2873 
Q 3191 2616 2906 2266 
Q 2828 2175 2409 1742 
Q 1991 1309 1228 531 
z
" transform="scale(0.015625)"/>
       </defs>
       <use xlink:href="#DejaVuSans-31"/>
       <use xlink:href="#DejaVuSans-32" x="63.623047"/>
      </g>
     </g>
    </g>
    <g id="xtick_5">
     <g id="line2d_5">
      <g>
       <use xlink:href="#mc40979dc7a" x="246.663529" y="307.584" style="stroke: #000000; stroke-width: 0.8"/>
      </g>
     </g>
     <g id="text_5">
      <!-- 14 -->
      <g transform="translate(240.301029 322.182437) scale(0.1 -0.1)">
       <defs>
        <path id="DejaVuSans-34" d="M 2419 4116 
L 825 1625 
L 2419 1625 
L 2419 4116 
z
M 2253 4666 
L 3047 4666 
L 3047 1625 
L 3713 1625 
L 3713 1100 
L 3047 1100 
L 3047 0 
L 2419 0 
L 2419 1100 
L 313 1100 
L 313 1709 
L 2253 4666 
z
" transform="scale(0.015625)"/>
       </defs>
       <use xlink:href="#DejaVuSans-31"/>
       <use xlink:href="#DejaVuSans-34" x="63.623047"/>
      </g>
     </g>
    </g>
    <g id="xtick_6">
     <g id="line2d_6">
      <g>
       <use xlink:href="#mc40979dc7a" x="288.677647" y="307.584" style="stroke: #000000; stroke-width: 0.8"/>
      </g>
     </g>
     <g id="text_6">
      <!-- 16 -->
      <g transform="translate(282.315147 322.182437) scale(0.1 -0.1)">
       <use xlink:href="#DejaVuSans-31"/>
       <use xlink:href="#DejaVuSans-36" x="63.623047"/>
      </g>
     </g>
    </g>
    <g id="xtick_7">
     <g id="line2d_7">
      <g>
       <use xlink:href="#mc40979dc7a" x="330.691765" y="307.584" style="stroke: #000000; stroke-width: 0.8"/>
      </g>
     </g>
     <g id="text_7">
      <!-- 18 -->
      <g transform="translate(324.329265 322.182437) scale(0.1 -0.1)">
       <use xlink:href="#DejaVuSans-31"/>
       <use xlink:href="#DejaVuSans-38" x="63.623047"/>
      </g>
     </g>
    </g>
    <g id="xtick_8">
     <g id="line2d_8">
      <g>
       <use xlink:href="#mc40979dc7a" x="372.705882" y="307.584" style="stroke: #000000; stroke-width: 0.8"/>
      </g>
     </g>
     <g id="text_8">
      <!-- 20 -->
      <g transform="translate(366.343382 322.182437) scale(0.1 -0.1)">
       <use xlink:href="#DejaVuSans-32"/>
       <use xlink:href="#DejaVuSans-30" x="63.623047"/>
      </g>
     </g>
    </g>
    <g id="xtick_9">
     <g id="line2d_9">
      <g>
       <use xlink:href="#mc40979dc7a" x="414.72" y="307.584" style="stroke: #000000; stroke-width: 0.8"/>
      </g>
     </g>
     <g id="text_9">
      <!-- 22 -->
      <g transform="translate(408.3575 322.182437) scale(0.1 -0.1)">
       <use xlink:href="#DejaVuSans-32"/>
       <use xlink:href="#DejaVuSans-32" x="63.623047"/>
      </g>
     </g>
    </g>
   </g>
   <g id="matplotlib.axis_2">
    <g id="ytick_1">
     <g id="line2d_10">
      <defs>
       <path id="m4aa03703eb" d="M 0 0 
L -3.5 0 
" style="stroke: #000000; stroke-width: 0.8"/>
      </defs>
      <g>
       <use xlink:href="#m4aa03703eb" x="57.6" y="307.584" style="stroke: #000000; stroke-width: 0.8"/>
      </g>
     </g>
     <g id="text_10">
      <!-- 20.0 -->
      <g transform="translate(28.334375 311.383219) scale(0.1 -0.1)">
       <defs>
        <path id="DejaVuSans-2e" d="M 684 794 
L 1344 794 
L 1344 0 
L 684 0 
L 684 794 
z
" transform="scale(0.015625)"/>
       </defs>
       <use xlink:href="#DejaVuSans-32"/>
       <use xlink:href="#DejaVuSans-30" x="63.623047"/>
       <use xlink:href="#DejaVuSans-2e" x="127.246094"/>
       <use xlink:href="#DejaVuSans-30" x="159.033203"/>
      </g>
     </g>
    </g>
    <g id="ytick_2">
     <g id="line2d_11">
      <g>
       <use xlink:href="#m4aa03703eb" x="57.6" y="277.344" style="stroke: #000000; stroke-width: 0.8"/>
      </g>
     </g>
     <g id="text_11">
      <!-- 22.5 -->
      <g transform="translate(28.334375 281.143219) scale(0.1 -0.1)">
       <defs>
        <path id="DejaVuSans-35" d="M 691 4666 
L 3169 4666 
L 3169 4134 
L 1269 4134 
L 1269 2991 
Q 1406 3038 1543 3061 
Q 1681 3084 1819 3084 
Q 2600 3084 3056 2656 
Q 3513 2228 3513 1497 
Q 3513 744 3044 326 
Q 2575 -91 1722 -91 
Q 1428 -91 1123 -41 
Q 819 9 494 109 
L 494 744 
Q 775 591 1075 516 
Q 1375 441 1709 441 
Q 2250 441 2565 725 
Q 2881 1009 2881 1497 
Q 2881 1984 2565 2268 
Q 2250 2553 1709 2553 
Q 1456 2553 1204 2497 
Q 953 2441 691 2322 
L 691 4666 
z
" transform="scale(0.015625)"/>
       </defs>
       <use xlink:href="#DejaVuSans-32"/>
       <use xlink:href="#DejaVuSans-32" x="63.623047"/>
       <use xlink:href="#DejaVuSans-2e" x="127.246094"/>
       <use xlink:href="#DejaVuSans-35" x="159.033203"/>
      </g>
     </g>
    </g>
    <g id="ytick_3">
     <g id="line2d_12">
      <g>
       <use xlink:href="#m4aa03703eb" x="57.6" y="247.104" style="stroke: #000000; stroke-width: 0.8"/>
      </g>
     </g>
     <g id="text_12">
      <!-- 25.0 -->
      <g transform="translate(28.334375 250.903219) scale(0.1 -0.1)">
       <use xlink:href="#DejaVuSans-32"/>
       <use xlink:href="#DejaVuSans-35" x="63.623047"/>
       <use xlink:href="#DejaVuSans-2e" x="127.246094"/>
       <use xlink:href="#DejaVuSans-30" x="159.033203"/>
      </g>
     </g>
    </g>
    <g id="ytick_4">
     <g id="line2d_13">
      <g>
       <use xlink:href="#m4aa03703eb" x="57.6" y="216.864" style="stroke: #000000; stroke-width: 0.8"/>
      </g>
     </g>
     <g id="text_13">
      <!-- 27.5 -->
      <g transform="translate(28.334375 220.663219) scale(0.1 -0.1)">
       <defs>
        <path id="DejaVuSans-37" d="M 525 4666 
L 3525 4666 
L 3525 4397 
L 1831 0 
L 1172 0 
L 2766 4134 
L 525 4134 
L 525 4666 
z
" transform="scale(0.015625)"/>
       </defs>
       <use xlink:href="#DejaVuSans-32"/>
       <use xlink:href="#DejaVuSans-37" x="63.623047"/>
       <use xlink:href="#DejaVuSans-2e" x="127.246094"/>
       <use xlink:href="#DejaVuSans-35" x="159.033203"/>
      </g>
     </g>
    </g>
    <g id="ytick_5">
     <g id="line2d_14">
      <g>
       <use xlink:href="#m4aa03703eb" x="57.6" y="186.624" style="stroke: #000000; stroke-width: 0.8"/>
      </g>
     </g>
     <g id="text_14">
      <!-- 30.0 -->
      <g transform="translate(28.334375 190.423219) scale(0.1 -0.1)">
       <defs>
        <path id="DejaVuSans-33" d="M 2597 2516 
Q 3050 2419 3304 2112 
Q 3559 1806 3559 1356 
Q 3559 666 3084 287 
Q 2609 -91 1734 -91 
Q 1441 -91 1130 -33 
Q 819 25 488 141 
L 488 750 
Q 750 597 1062 519 
Q 1375 441 1716 441 
Q 2309 441 2620 675 
Q 2931 909 2931 1356 
Q 2931 1769 2642 2001 
Q 2353 2234 1838 2234 
L 1294 2234 
L 1294 2753 
L 1863 2753 
Q 2328 2753 2575 2939 
Q 2822 3125 2822 3475 
Q 2822 3834 2567 4026 
Q 2313 4219 1838 4219 
Q 1578 4219 1281 4162 
Q 984 4106 628 3988 
L 628 4550 
Q 988 4650 1302 4700 
Q 1616 4750 1894 4750 
Q 2613 4750 3031 4423 
Q 3450 4097 3450 3541 
Q 3450 3153 3228 2886 
Q 3006 2619 2597 2516 
z
" transform="scale(0.015625)"/>
       </defs>
       <use xlink:href="#DejaVuSans-33"/>
       <use xlink:href="#DejaVuSans-30" x="63.623047"/>
       <use xlink:href="#DejaVuSans-2e" x="127.246094"/>
       <use xlink:href="#DejaVuSans-30" x="159.033203"/>
      </g>
     </g>
    </g>
    <g id="ytick_6">
     <g id="line2d_15">
      <g>
       <use xlink:href="#m4aa03703eb" x="57.6" y="156.384" style="stroke: #000000; stroke-width: 0.8"/>
      </g>
     </g>
     <g id="text_15">
      <!-- 32.5 -->
      <g transform="translate(28.334375 160.183219) scale(0.1 -0.1)">
       <use xlink:href="#DejaVuSans-33"/>
       <use xlink:href="#DejaVuSans-32" x="63.623047"/>
       <use xlink:href="#DejaVuSans-2e" x="127.246094"/>
       <use xlink:href="#DejaVuSans-35" x="159.033203"/>
      </g>
     </g>
    </g>
    <g id="ytick_7">
     <g id="line2d_16">
      <g>
       <use xlink:href="#m4aa03703eb" x="57.6" y="126.144" style="stroke: #000000; stroke-width: 0.8"/>
      </g>
     </g>
     <g id="text_16">
      <!-- 35.0 -->
      <g transform="translate(28.334375 129.943219) scale(0.1 -0.1)">
       <use xlink:href="#DejaVuSans-33"/>
       <use xlink:href="#DejaVuSans-35" x="63.623047"/>
       <use xlink:href="#DejaVuSans-2e" x="127.246094"/>
       <use xlink:href="#DejaVuSans-30" x="159.033203"/>
      </g>
     </g>
    </g>
    <g id="ytick_8">
     <g id="line2d_17">
      <g>
       <use xlink:href="#m4aa03703eb" x="57.6" y="95.904" style="stroke: #000000; stroke-width: 0.8"/>
      </g>
     </g>
     <g id="text_17">
      <!-- 37.5 -->
      <g transform="translate(28.334375 99.703219) scale(0.1 -0.1)">
       <use xlink:href="#DejaVuSans-33"/>
       <use xlink:href="#DejaVuSans-37" x="63.623047"/>
       <use xlink:href="#DejaVuSans-2e" x="127.246094"/>
       <use xlink:href="#DejaVuSans-35" x="159.033203"/>
      </g>
     </g>
    </g>
    <g id="ytick_9">
     <g id="line2d_18">
      <g>
       <use xlink:href="#m4aa03703eb" x="57.6" y="65.664" style="stroke: #000000; stroke-width: 0.8"/>
      </g>
     </g>
     <g id="text_18">
      <!-- 40.0 -->
      <g transform="translate(28.334375 69.463219) scale(0.1 -0.1)">
       <use xlink:href="#DejaVuSans-34"/>
       <use xlink:href="#DejaVuSans-30" x="63.623047"/>
       <use xlink:href="#DejaVuSans-2e" x="127.246094"/>
       <use xlink:href="#DejaVuSans-30" x="159.033203"/>
      </g>
     </g>
    </g>
   </g>
   <g id="patch_3">
    <path d="M 57.6 307.584 
L 57.6 41.472 
" style="fill: none; stroke: #000000; stroke-width: 0.8; stroke-linejoin: miter; stroke-linecap: square"/>
   </g>
   <g id="patch_4">
    <path d="M 414.72 307.584 
L 414.72 41.472 
" style="fill: none; stroke: #000000; stroke-width: 0.8; stroke-linejoin: miter; stroke-linecap: square"/>
   </g>
   <g id="patch_5">
    <path d="M 57.6 307.584 
L 414.72 307.584 
" style="fill: none; stroke: #000000; stroke-width: 0.8; stroke-linejoin: miter; stroke-linecap: square"/>
   </g>
   <g id="patch_6">
    <path d="M 57.6 41.472 
L 414.72 41.472 
" style="fill: none; stroke: #000000; stroke-width: 0.8; stroke-linejoin: miter; stroke-linecap: square"/>
   </g>
   <g id="text_19">
    <!-- 10 -->
    <g transform="translate(279.667023 276.399761) scale(0.1 -0.1)">
     <use xlink:href="#DejaVuSans-31"/>
     <use xlink:href="#DejaVuSans-30" x="63.623047"/>
    </g>
   </g>
   <g id="text_20">
    <!-- 11 -->
    <g transform="translate(245.089807 264.407467) scale(0.1 -0.1)">
     <use xlink:href="#DejaVuSans-31"/>
     <use xlink:href="#DejaVuSans-31" x="63.623047"/>
    </g>
   </g>
   <g id="text_21">
    <!-- 12 -->
    <g transform="translate(231.876834 194.624246) scale(0.1 -0.1)">
     <use xlink:href="#DejaVuSans-31"/>
     <use xlink:href="#DejaVuSans-32" x="63.623047"/>
    </g>
   </g>
   <g id="text_22">
    <!-- 13 -->
    <g transform="translate(215.776296 154.209577) scale(0.1 -0.1)">
     <use xlink:href="#DejaVuSans-31"/>
     <use xlink:href="#DejaVuSans-33" x="63.623047"/>
    </g>
   </g>
   <g id="text_23">
    <!-- 14 -->
    <g transform="translate(203.006132 102.000634) scale(0.1 -0.1)">
     <use xlink:href="#DejaVuSans-31"/>
     <use xlink:href="#DejaVuSans-34" x="63.623047"/>
    </g>
   </g>
   <g id="text_24">
    <!-- 16 -->
    <g transform="translate(132.366907 67.24789) scale(0.1 -0.1)">
     <use xlink:href="#DejaVuSans-31"/>
     <use xlink:href="#DejaVuSans-36" x="63.623047"/>
    </g>
   </g>
   <g id="text_25">
    <!-- 25 -->
    <g transform="translate(312.398216 263.992022) scale(0.1 -0.1)">
     <use xlink:href="#DejaVuSans-32"/>
     <use xlink:href="#DejaVuSans-35" x="63.623047"/>
    </g>
   </g>
   <g id="text_26">
    <!-- 26 -->
    <g transform="translate(248.533613 249.72769) scale(0.1 -0.1)">
     <use xlink:href="#DejaVuSans-32"/>
     <use xlink:href="#DejaVuSans-36" x="63.623047"/>
    </g>
   </g>
   <g id="text_27">
    <!-- 27 -->
    <g transform="translate(207.553545 271.534119) scale(0.1 -0.1)">
     <use xlink:href="#DejaVuSans-32"/>
     <use xlink:href="#DejaVuSans-37" x="63.623047"/>
    </g>
   </g>
   <g id="text_28">
    <!-- 28 -->
    <g transform="translate(227.327297 184.452415) scale(0.1 -0.1)">
     <use xlink:href="#DejaVuSans-32"/>
     <use xlink:href="#DejaVuSans-38" x="63.623047"/>
    </g>
   </g>
   <g id="text_29">
    <!-- 29 -->
    <g transform="translate(211.411451 119.6235) scale(0.1 -0.1)">
     <defs>
      <path id="DejaVuSans-39" d="M 703 97 
L 703 672 
Q 941 559 1184 500 
Q 1428 441 1663 441 
Q 2288 441 2617 861 
Q 2947 1281 2994 2138 
Q 2813 1869 2534 1725 
Q 2256 1581 1919 1581 
Q 1219 1581 811 2004 
Q 403 2428 403 3163 
Q 403 3881 828 4315 
Q 1253 4750 1959 4750 
Q 2769 4750 3195 4129 
Q 3622 3509 3622 2328 
Q 3622 1225 3098 567 
Q 2575 -91 1691 -91 
Q 1453 -91 1209 -44 
Q 966 3 703 97 
z
M 1959 2075 
Q 2384 2075 2632 2365 
Q 2881 2656 2881 3163 
Q 2881 3666 2632 3958 
Q 2384 4250 1959 4250 
Q 1534 4250 1286 3958 
Q 1038 3666 1038 3163 
Q 1038 2656 1286 2365 
Q 1534 2075 1959 2075 
z
" transform="scale(0.015625)"/>
     </defs>
     <use xlink:href="#DejaVuSans-32"/>
     <use xlink:href="#DejaVuSans-39" x="63.623047"/>
    </g>
   </g>
   <g id="text_30">
    <!-- 30 -->
    <g transform="translate(198.416427 128.675105) scale(0.1 -0.1)">
     <use xlink:href="#DejaVuSans-33"/>
     <use xlink:href="#DejaVuSans-30" x="63.623047"/>
    </g>
   </g>
   <g id="text_31">
    <!-- 32 -->
    <g transform="translate(118.024203 72.220399) scale(0.1 -0.1)">
     <use xlink:href="#DejaVuSans-33"/>
     <use xlink:href="#DejaVuSans-32" x="63.623047"/>
    </g>
   </g>
   <g id="text_32">
    <!-- 9 -->
    <g transform="translate(293.735804 293.550589) scale(0.1 -0.1)">
     <use xlink:href="#DejaVuSans-39"/>
    </g>
   </g>
  </g>
 </g>
 <defs>
  <clipPath id="pc0b06348a1">
   <rect x="57.6" y="41.472" width="357.12" height="266.112"/>
  </clipPath>
 </defs>
</svg>
